# xmcd CD database file
#
# Track frame offsets:
#	150
#	15449
#	37067
#	54060
#	72854
#	76611
#	94875
#	107438
#	122401
#	136081
#	152075
#	172988
#
# Disc length: 2506 seconds
#
# Revision: 1
# Processed by: cddbd v1.5.2PL0 Copyright (c) Steve Scherf et al.
# Submitted via: CDex 1.50
#
DISCID=8009c80c
DTITLE=Ganes - an cunta che
DYEAR=2016
DGENRE=Jazz
TTITLE0=Ganes - moltina
TTITLE1=Ganes - ey de net
TTITLE2=Ganes - tana
TTITLE3=Ganes - dolasila
TTITLE4=Ganes - amesa i monns
TTITLE5=Ganes - la pesc gnará
TTITLE6=Ganes - armentara
TTITLE7=Ganes - lech dl ergobando
TTITLE8=Ganes - la munt dal scioz
TTITLE9=Ganes - crëps slauris
TTITLE10=Ganes - tëmp impormetü
TTITLE11=Ganes - lomiscel dl salvan
EXTD=YEAR: 2016
EXTT0=
EXTT1=
EXTT2=
EXTT3=
EXTT4=
EXTT5=
EXTT6=
EXTT7=
EXTT8=
EXTT9=
EXTT10=
EXTT11=
PLAYORDER=
